<?xml version="1.0" encoding="UTF-8" standalone="no"?><svg width="403" height="112" viewBox="0 0 403 112" fill="none" xmlns="http://www.w3.org/2000/svg">
<path d="M91.9344 5.68512V8.22846C91.9344 11.7193 92.059 15.3598 92.3084 19.1499C92.5577 22.8901 92.9317 26.8298 93.4304 30.9689L87.9697 31.8666C86.9723 24.6854 83.5812 19.1 77.7964 15.1104C72.0115 11.071 64.4563 9.05131 55.1307 9.05131C42.7132 9.05131 33.1133 12.8663 26.3311 20.4963C19.5987 28.0765 16.2325 38.8483 16.2325 52.8118C16.2325 67.7227 20.0974 79.7911 27.8272 89.017C35.6068 98.193 45.6804 102.781 58.0481 102.781C65.8277 102.781 72.5601 100.986 78.2452 97.3951C83.9802 93.8045 88.4435 88.5432 91.6351 81.6114L96.647 84.0799C95.0512 87.3214 93.605 90.6378 92.3084 94.0289C91.0118 97.3701 89.8648 100.736 88.8674 104.127C83.4815 106.571 77.9958 108.416 72.4105 109.663C66.8251 110.91 61.2148 111.533 55.5795 111.533C39.0228 111.533 25.608 106.421 15.3349 96.1982C5.11162 85.9251 0 72.4354 0 55.7291C0 39.2722 5.41084 25.8823 16.2325 15.5593C27.0542 5.18642 41.0426 0 58.1977 0C63.2843 0 68.6453 0.47376 74.2806 1.42128C79.9657 2.3688 85.8503 3.79008 91.9344 5.68512Z" fill="black"/>
<path d="M100.32 2.31893C104.061 2.51841 107.601 2.66802 110.943 2.76776C114.284 2.86749 117.226 2.91736 119.769 2.91736C122.961 2.91736 126.203 2.86749 129.494 2.76776C132.835 2.66802 136.251 2.51841 139.742 2.31893L139.667 7.03159C135.478 7.38068 132.686 7.92925 131.289 8.67729C129.943 9.42533 129.27 10.7219 129.27 12.5671C129.27 13.9634 129.519 15.7338 130.018 17.8782C130.566 19.9727 131.514 22.8901 132.86 26.6303L155.376 89.6154C167.395 59.4444 174.95 39.8956 178.042 30.9689C181.184 21.9924 182.755 16.1078 182.755 13.3151C182.755 11.0212 182.131 9.45026 180.884 8.60248C179.688 7.7547 176.895 7.23107 172.506 7.03159V2.31893C175.499 2.51841 178.441 2.66802 181.333 2.76776C184.276 2.86749 187.143 2.91736 189.936 2.91736C192.33 2.91736 194.998 2.86749 197.94 2.76776C200.882 2.66802 203.949 2.51841 207.141 2.31893V7.03159H206.019C200.533 7.03159 195.87 11.8689 192.03 21.5436C191.183 23.7379 190.484 25.4334 189.936 26.6303C175.873 60.3919 166.821 82.3594 162.782 92.5328C158.742 102.706 156.623 108.616 156.424 110.261H147.223C147.223 109.065 144.904 101.609 140.266 87.8949C135.628 74.1808 130.018 58.6465 123.435 41.2919C122.986 40.0452 122.338 38.2748 121.49 35.9808C114.259 16.5816 107.876 6.88199 102.34 6.88199C101.841 6.88199 101.442 6.90692 101.143 6.95679C100.894 6.95679 100.62 6.98172 100.32 7.03159V2.31893Z" fill="black"/>
<path d="M215.097 2.31893C218.538 2.51841 221.804 2.66802 224.896 2.76776C227.988 2.86749 230.805 2.91736 233.349 2.91736C236.391 2.91736 239.508 2.86749 242.699 2.76776C245.891 2.66802 249.157 2.51841 252.499 2.31893V7.48042H249.731C247.936 7.48042 246.539 7.7547 245.542 8.30327C244.544 8.85183 244.046 9.59987 244.046 10.5474C244.046 11.3952 244.544 12.7666 245.542 14.6616C246.539 16.5567 248.384 19.5738 251.077 23.7129L264.318 43.9849L275.763 27.3783C279.752 21.6433 282.321 17.7535 283.468 15.7089C284.664 13.6144 285.263 12.0435 285.263 10.9962C285.263 9.84922 284.689 8.9765 283.542 8.37807C282.395 7.77964 280.725 7.48042 278.531 7.48042H277.034V2.31893C280.126 2.51841 283.069 2.66802 285.861 2.76776C288.704 2.86749 291.222 2.91736 293.417 2.91736C296.06 2.91736 298.753 2.86749 301.495 2.76776C304.288 2.66802 307.156 2.51841 310.098 2.31893L310.023 7.48042C309.774 7.43055 309.499 7.40562 309.2 7.40562C308.951 7.35575 308.527 7.33081 307.929 7.33081C303.341 7.33081 297.73 11.9188 291.098 21.0948C289.552 23.289 288.33 24.9846 287.432 26.1815L268.881 50.8669L294.613 88.5682C299.152 95.3005 302.568 99.5644 304.862 101.36C307.156 103.105 309.674 103.978 312.417 103.978C312.916 103.978 313.29 103.978 313.539 103.978C313.788 103.928 314.013 103.903 314.212 103.903V109.065C310.322 108.865 306.657 108.715 303.216 108.616C299.825 108.516 296.758 108.466 294.015 108.466C291.771 108.466 288.978 108.516 285.637 108.616C282.296 108.715 278.655 108.865 274.716 109.065V103.828H276.66C279.254 103.828 281.149 103.529 282.346 102.931C283.592 102.332 284.216 101.41 284.216 100.163C284.216 98.8662 282.794 96.1234 279.952 91.9344L279.279 90.9619L259.979 62.3119L246.814 81.1626C242.724 86.9973 239.832 91.3609 238.136 94.2533C236.491 97.1457 235.668 99.1654 235.668 100.312C235.668 101.559 236.266 102.482 237.463 103.08C238.71 103.679 240.555 103.978 242.999 103.978C243.298 103.978 243.722 103.953 244.27 103.903C244.869 103.853 245.317 103.828 245.617 103.828V109.065C241.976 108.865 238.61 108.715 235.518 108.616C232.476 108.516 229.908 108.466 227.813 108.466C225.37 108.466 222.577 108.516 219.435 108.616C216.343 108.715 213.052 108.865 209.561 109.065V103.903C209.81 103.903 210.085 103.928 210.384 103.978C210.733 103.978 211.182 103.978 211.73 103.978C216.717 103.978 222.552 99.4896 229.235 90.5131L229.309 90.4383L255.416 55.5795L231.479 19.4491C231.329 19.1997 231.055 18.7759 230.656 18.1774C225.918 11.0461 221.206 7.48042 216.518 7.48042H215.097V2.31893Z" fill="black"/>
<path d="M335.643 64.6787C336.771 64.6787 337.646 64.9587 338.269 65.5187C338.892 66.0787 339.237 66.7148 339.306 67.4272H338.13C337.996 66.8862 337.729 66.4577 337.329 66.1415C336.933 65.8253 336.375 65.6672 335.655 65.6672C334.778 65.6672 334.068 65.9587 333.527 66.5415C332.989 67.1205 332.72 68.01 332.72 69.2099C332.72 70.1928 332.962 70.9908 333.448 71.6041C333.937 72.2136 334.665 72.5184 335.631 72.5184C336.52 72.5184 337.198 72.1965 337.663 71.5527C337.909 71.2137 338.093 70.768 338.215 70.2156H339.391C339.286 71.0994 338.938 71.8403 338.348 72.4384C337.64 73.1584 336.686 73.5183 335.485 73.5183C334.45 73.5183 333.581 73.2231 332.878 72.6327C331.952 71.8517 331.489 70.6461 331.489 69.0157C331.489 67.7776 331.836 66.7624 332.532 65.9701C333.284 65.1092 334.321 64.6787 335.643 64.6787Z" fill="black"/>
<path d="M345.504 68.7528C346.07 68.7528 346.517 68.6462 346.844 68.4328C347.176 68.2195 347.341 67.8348 347.341 67.2786C347.341 66.6805 347.111 66.2729 346.65 66.0558C346.403 65.9415 346.074 65.8844 345.661 65.8844H342.714V68.7528H345.504ZM341.507 64.9073H345.631C346.31 64.9073 346.87 65.0006 347.311 65.1873C348.148 65.5453 348.566 66.2063 348.566 67.17C348.566 67.6729 348.455 68.0843 348.233 68.4043C348.015 68.7243 347.707 68.9814 347.311 69.1757C347.659 69.309 347.92 69.4842 348.093 69.7014C348.271 69.9185 348.37 70.2709 348.391 70.7585L348.433 71.8841C348.445 72.2041 348.473 72.4422 348.518 72.5984C348.591 72.865 348.72 73.0365 348.906 73.1126V73.3012H347.426C347.386 73.2288 347.354 73.1355 347.329 73.0212C347.305 72.9069 347.285 72.686 347.269 72.3584L347.196 70.9584C347.168 70.4099 346.951 70.0423 346.547 69.8556C346.316 69.7528 345.955 69.7014 345.461 69.7014H342.714V73.3012H341.507V64.9073Z" fill="black"/>
<path d="M349.924 64.9073H351.331L353.891 68.9414L356.45 64.9073H357.863L354.497 69.9185V73.3012H353.29V69.9185L349.924 64.9073Z" fill="black"/>
<path d="M359.512 64.9073H363.521C364.314 64.9073 364.952 65.1187 365.437 65.5415C365.923 65.9606 366.165 66.551 366.165 67.3129C366.165 67.9681 365.949 68.5395 365.516 69.0271C365.084 69.5109 364.419 69.7528 363.521 69.7528H360.719V73.3012H359.512V64.9073ZM364.946 67.3186C364.946 66.7015 364.704 66.2825 364.218 66.0615C363.952 65.9434 363.586 65.8844 363.121 65.8844H360.719V68.7928H363.121C363.663 68.7928 364.101 68.6843 364.437 68.4671C364.776 68.25 364.946 67.8671 364.946 67.3186Z" fill="black"/>
<path d="M374.661 64.9073V65.9072H371.659V73.3012H370.434V65.9072H367.432V64.9073H374.661Z" fill="black"/>
<path d="M379.895 64.6787C381.468 64.6787 382.632 65.1549 383.388 66.1072C383.978 66.85 384.273 67.8005 384.273 68.9585C384.273 70.2118 383.936 71.2537 383.261 72.0841C382.468 73.0593 381.338 73.5469 379.871 73.5469C378.5 73.5469 377.422 73.1203 376.638 72.267C375.939 71.4441 375.589 70.4042 375.589 69.1471C375.589 68.0119 375.888 67.0405 376.486 66.2329C377.255 65.1968 378.391 64.6787 379.895 64.6787ZM380.016 72.5298C381.079 72.5298 381.848 72.1717 382.321 71.4556C382.798 70.7356 383.036 69.909 383.036 68.9757C383.036 67.989 382.761 67.1948 382.211 66.5929C381.666 65.991 380.918 65.6901 379.968 65.6901C379.046 65.6901 378.294 65.9891 377.711 66.5872C377.129 67.1815 376.838 68.0595 376.838 69.2214C376.838 70.1509 377.087 70.9356 377.584 71.5756C378.085 72.2117 378.896 72.5298 380.016 72.5298Z" fill="black"/>
<path d="M332.823 82.0984L335.382 89.2466L337.911 82.0984H339.263L336.013 90.4923H334.733L331.488 82.0984H332.823Z" fill="black"/>
<path d="M344.551 87.0525L343.199 83.344L341.761 87.0525H344.551ZM342.568 82.0984H343.933L347.165 90.4923H345.843L344.939 87.9781H341.416L340.451 90.4923H339.214L342.568 82.0984Z" fill="black"/>
<path d="M348.76 82.0984H349.966V89.4924H354.479V90.4923H348.76V82.0984Z" fill="black"/>
<path d="M356.17 82.0984H357.377V89.4924H361.889V90.4923H356.17V82.0984Z" fill="black"/>
<path d="M363.696 82.0984H370.191V83.1269H364.873V85.6754H369.791V86.6468H364.873V89.4924H370.282V90.4923H363.696V82.0984Z" fill="black"/>
<path d="M371.671 82.0984H373.078L375.637 86.1325L378.196 82.0984H379.609L376.243 87.1096V90.4923H375.036V87.1096L371.671 82.0984Z" fill="black"/>
<path d="M331.489 100.403H337.984V101.431H332.665V103.98H337.584V104.951H332.665V107.797H338.075V108.797H331.489V100.403Z" fill="black"/>
<path d="M340.919 108.797H339.463L342.653 104.494L339.663 100.403H341.174L343.448 103.614L345.704 100.403H347.141L344.151 104.494L347.287 108.797H345.789L343.387 105.346L340.919 108.797Z" fill="black"/>
<path d="M352.69 100.174C353.818 100.174 354.693 100.454 355.316 101.014C355.939 101.574 356.284 102.21 356.353 102.923H355.177C355.043 102.382 354.776 101.953 354.376 101.637C353.98 101.321 353.422 101.163 352.702 101.163C351.825 101.163 351.115 101.454 350.573 102.037C350.036 102.616 349.767 103.506 349.767 104.706C349.767 105.688 350.009 106.486 350.495 107.1C350.984 107.709 351.712 108.014 352.678 108.014C353.567 108.014 354.245 107.692 354.71 107.048C354.956 106.709 355.14 106.264 355.261 105.711H356.438C356.333 106.595 355.985 107.336 355.395 107.934C354.687 108.654 353.733 109.014 352.532 109.014C351.497 109.014 350.628 108.719 349.924 108.128C348.999 107.347 348.536 106.142 348.536 104.511C348.536 103.273 348.883 102.258 349.579 101.466C350.331 100.605 351.368 100.174 352.69 100.174Z" fill="black"/>
<path d="M358.439 100.403H359.658V103.871H364.291V100.403H365.51V108.797H364.291V104.871H359.658V108.797H358.439V100.403Z" fill="black"/>
<path d="M372.454 105.357L371.101 101.649L369.664 105.357H372.454ZM370.471 100.403H371.835L375.068 108.797H373.746L372.842 106.283H369.318L368.354 108.797H367.117L370.471 100.403Z" fill="black"/>
<path d="M376.662 100.403H378.087L382.587 107.203V100.403H383.734V108.797H382.381L377.815 102.003V108.797H376.662V100.403Z" fill="black"/>
<path d="M389.986 100.186C390.823 100.186 391.547 100.338 392.157 100.643C393.043 101.081 393.584 101.849 393.782 102.946H392.588C392.442 102.332 392.141 101.887 391.684 101.609C391.227 101.327 390.651 101.186 389.956 101.186C389.131 101.186 388.435 101.477 387.869 102.06C387.307 102.643 387.026 103.511 387.026 104.666C387.026 105.664 387.259 106.477 387.724 107.105C388.189 107.73 388.947 108.043 389.998 108.043C390.803 108.043 391.468 107.824 391.993 107.385C392.523 106.944 392.794 106.231 392.806 105.248H390.016V104.306H393.928V108.797H393.152L392.861 107.717C392.452 108.14 392.09 108.433 391.775 108.597C391.245 108.879 390.572 109.02 389.755 109.02C388.7 109.02 387.793 108.698 387.032 108.054C386.204 107.246 385.789 106.138 385.789 104.728C385.789 103.323 386.193 102.205 387.002 101.374C387.77 100.582 388.765 100.186 389.986 100.186Z" fill="black"/>
<path d="M396.414 100.403H402.909V101.431H397.591V103.98H402.509V104.951H397.591V107.797H403V108.797H396.414V100.403Z" fill="black"/>
<path fill-rule="evenodd" clip-rule="evenodd" d="M365.378 2.6748H330.367V36.4611L341.345 23.425L341.81 22.8721L342.377 23.3207L350.692 29.9036L365.139 8.95599L365.378 9.1211V2.6748ZM365.378 11.233L351.467 31.4044L351.015 32.0594L350.391 31.5655L342.019 24.9374L331.283 37.6859H365.378V11.233Z" fill="black"/>
</svg>
